solid OpenSCAD_Model
  facet normal -0 0 1
    outer loop
      vertex 0 13 13
      vertex 13 0 13
      vertex 13 13 13
    endloop
  endfacet
  facet normal 0 0 1
    outer loop
      vertex 13 0 13
      vertex 0 13 13
      vertex 0 0 13
    endloop
  endfacet
  facet normal 0 0 -1
    outer loop
      vertex 0 0 0
      vertex 13 13 0
      vertex 13 0 0
    endloop
  endfacet
  facet normal -0 0 -1
    outer loop
      vertex 13 13 0
      vertex 0 0 0
      vertex 0 13 0
    endloop
  endfacet
  facet normal 0 -1 0
    outer loop
      vertex 0 0 0
      vertex 13 0 13
      vertex 0 0 13
    endloop
  endfacet
  facet normal 0 -1 -0
    outer loop
      vertex 13 0 13
      vertex 0 0 0
      vertex 13 0 0
    endloop
  endfacet
  facet normal 1 -0 0
    outer loop
      vertex 13 0 13
      vertex 13 13 0
      vertex 13 13 13
    endloop
  endfacet
  facet normal 1 0 0
    outer loop
      vertex 13 13 0
      vertex 13 0 13
      vertex 13 0 0
    endloop
  endfacet
  facet normal 0 1 -0
    outer loop
      vertex 13 13 0
      vertex 0 13 13
      vertex 13 13 13
    endloop
  endfacet
  facet normal 0 1 0
    outer loop
      vertex 0 13 13
      vertex 13 13 0
      vertex 0 13 0
    endloop
  endfacet
  facet normal -1 0 0
    outer loop
      vertex 0 0 0
      vertex 0 13 13
      vertex 0 13 0
    endloop
  endfacet
  facet normal -1 -0 0
    outer loop
      vertex 0 13 13
      vertex 0 0 0
      vertex 0 0 13
    endloop
  endfacet
endsolid OpenSCAD_Model
